# Blender v2.91.2 OBJ File: ''
# www.blender.org
mtllib cube.mtl
o Cube_Cube.001
v 0.000000 -0.073223 0.426777
v 0.353553 0.176777 0.176777
v -0.353553 0.176777 0.176777
v 0.000000 0.426777 -0.073223
v -0.000000 -0.426777 0.073223
v 0.353553 -0.176777 -0.176777
v -0.353553 -0.176777 -0.176777
v -0.000000 0.073223 -0.426777
vt 0.375000 0.000000
vt 0.625000 0.000000
vt 0.625000 0.250000
vt 0.375000 0.250000
vt 0.625000 0.500000
vt 0.375000 0.500000
vt 0.625000 0.750000
vt 0.375000 0.750000
vt 0.625000 1.000000
vt 0.375000 1.000000
vt 0.125000 0.500000
vt 0.125000 0.750000
vt 0.875000 0.500000
vt 0.875000 0.750000
vn 0.0000 0.7071 0.7071
vn -0.7071 0.5000 -0.5000
vn -0.0000 -0.7071 -0.7071
vn 0.7071 -0.5000 0.5000
vn -0.7071 -0.5000 0.5000
vn 0.7071 0.5000 -0.5000
usemtl None
s off
f 1/1/1 2/2/1 4/3/1 3/4/1
f 3/4/2 4/3/2 8/5/2 7/6/2
f 7/6/3 8/5/3 6/7/3 5/8/3
f 5/8/4 6/7/4 2/9/4 1/10/4
f 3/11/5 7/6/5 5/8/5 1/12/5
f 8/5/6 4/13/6 2/14/6 6/7/6
