# Blender v2.92.0 OBJ File: ''
# www.blender.org
mtllib cornell_box.mtl
o Plane
v 2.500000 -0.000000 2.500000
v 2.500000 0.000000 -2.500000
v -2.500000 0.000000 -2.500000
v -2.500000 -0.000000 2.500000
vt 0.000000 0.000000
vt 1.000000 0.000000
vt 1.000000 1.000000
vt 0.000000 1.000000
vn 0.0000 1.0000 0.0000
usemtl Material.003
s off
f 1/1/1 2/2/1 3/3/1 4/4/1
o Plane.001
v 2.500000 5.000000 2.500000
v 2.500000 5.000000 -2.500000
v 2.500000 0.000000 -2.500000
v 2.500000 -0.000000 2.500000
vt 0.000000 0.000000
vt 1.000000 0.000000
vt 1.000000 1.000000
vt 0.000000 1.000000
vn -1.0000 0.0000 0.0000
usemtl Material.002
s off
f 5/5/2 6/6/2 7/7/2 8/8/2
o Plane.002
v -2.500000 5.000000 -2.500000
v -2.500000 5.000000 2.500000
v -2.500000 -0.000000 2.500000
v -2.500000 0.000000 -2.500000
vt 0.000000 0.000000
vt 1.000000 0.000000
vt 1.000000 1.000000
vt 0.000000 1.000000
vn 1.0000 0.0000 0.0000
usemtl Material.004
s off
f 9/9/3 10/10/3 11/11/3 12/12/3
o Plane.003
v -2.500000 5.000000 2.500000
v 2.500000 5.000000 2.499999
v 2.500000 -0.000000 2.499999
v -2.500000 -0.000000 2.500000
vt 0.000000 0.000000
vt 1.000000 0.000000
vt 1.000000 1.000000
vt 0.000000 1.000000
vn -0.0000 0.0000 -1.0000
usemtl Material.003
s off
f 13/13/4 14/14/4 15/15/4 16/16/4
o Plane.004
v -2.500000 5.000000 -2.500001
v 2.500000 5.000000 -2.500002
v 0.500000 5.000000 -0.500001
v -0.500000 5.000000 -0.500001
v -0.500000 5.000001 0.499999
v 0.500000 5.000001 0.499999
v 2.500000 5.000002 2.499998
v -2.500000 5.000002 2.499999
vt 0.000000 0.000000
vt 1.000000 0.000000
vt 0.600000 0.400000
vt 0.400000 0.400000
vt 0.400000 0.600000
vt 0.600000 0.600000
vt 1.000000 1.000000
vt 0.000000 1.000000
vn 0.0000 -1.0000 0.0000
usemtl Material.003
s off
f 17/17/5 18/18/5 19/19/5 20/20/5
f 21/21/5 22/22/5 19/19/5 18/18/5 23/23/5 24/24/5 17/17/5 20/20/5
o Plane.005
v 0.500000 5.000001 -0.500000
v 0.500000 5.000001 0.500000
v -0.500000 5.000001 0.500000
v -0.500000 5.000001 -0.500000
vt 0.000000 0.000000
vt 1.000000 0.000000
vt 1.000000 1.000000
vt 0.000000 1.000000
vn 0.0000 -1.0000 0.0000
usemtl Light
s off
f 25/25/6 26/26/6 27/27/6 28/28/6
o Cube.002
v 2.043640 0.000000 -0.242978
v 2.043640 1.500000 -0.242978
v 0.691977 1.500000 0.407410
v 0.691977 -0.000000 0.407410
v 0.041588 1.500000 -0.944253
v 0.041588 0.000000 -0.944253
v 1.393252 1.500000 -1.594642
v 1.393252 0.000000 -1.594642
vt 0.375000 0.000000
vt 0.625000 0.000000
vt 0.625000 0.250000
vt 0.375000 0.250000
vt 0.625000 0.500000
vt 0.375000 0.500000
vt 0.625000 0.750000
vt 0.375000 0.750000
vt 0.625000 1.000000
vt 0.375000 1.000000
vt 0.125000 0.500000
vt 0.125000 0.750000
vt 0.875000 0.500000
vt 0.875000 0.750000
vn 0.4336 -0.0000 0.9011
vn -0.9011 -0.0000 0.4336
vn -0.4336 0.0000 -0.9011
vn 0.9011 0.0000 -0.4336
vn 0.0000 -1.0000 -0.0000
vn -0.0000 1.0000 -0.0000
usemtl Material.001
s off
f 29/29/7 30/30/7 31/31/7 32/32/7
f 32/32/8 31/31/8 33/33/8 34/34/8
f 34/34/9 33/33/9 35/35/9 36/36/9
f 36/36/10 35/35/10 30/37/10 29/38/10
f 32/39/11 34/34/11 36/36/11 29/40/11
f 33/33/12 31/41/12 30/42/12 35/35/12
o Cube.003
v -0.716007 0.000001 1.413693
v -0.716007 3.000001 1.413693
v -2.125242 3.000001 0.899829
v -2.125242 0.000001 0.899829
v -1.611378 3.000001 -0.509406
v -1.611378 0.000001 -0.509406
v -0.202143 3.000001 0.004458
v -0.202143 0.000001 0.004458
vt 0.375000 0.000000
vt 0.625000 0.000000
vt 0.625000 0.250000
vt 0.375000 0.250000
vt 0.625000 0.500000
vt 0.375000 0.500000
vt 0.625000 0.750000
vt 0.375000 0.750000
vt 0.625000 1.000000
vt 0.375000 1.000000
vt 0.125000 0.500000
vt 0.125000 0.750000
vt 0.875000 0.500000
vt 0.875000 0.750000
vn -0.3426 -0.0000 0.9395
vn -0.9395 0.0000 -0.3426
vn 0.3426 0.0000 -0.9395
vn 0.9395 -0.0000 0.3426
vn 0.0000 -1.0000 -0.0000
vn 0.0000 1.0000 0.0000
usemtl Material.001
s off
f 37/43/13 38/44/13 39/45/13 40/46/13
f 40/46/14 39/45/14 41/47/14 42/48/14
f 42/48/15 41/47/15 43/49/15 44/50/15
f 44/50/16 43/49/16 38/51/16 37/52/16
f 40/53/17 42/48/17 44/50/17 37/54/17
f 41/47/18 39/55/18 38/56/18 43/49/18
