# Blender v2.92.0 OBJ File: ''
# www.blender.org
mtllib cornell_box.mtl
o Plane
v 2.500000 -0.000000 2.500000
v 2.500000 0.000000 -2.500000
v -2.500000 0.000000 -2.500000
v -2.500000 -0.000000 2.500000
vt 0.000000 0.000000
vt 1.000000 0.000000
vt 1.000000 1.000000
vt 0.000000 1.000000
vn 0.0000 1.0000 0.0000
usemtl Material.003
s off
f 1/1/1 2/2/1 3/3/1 4/4/1
o Plane.001
v 2.500000 5.000000 2.500000
v 2.500000 5.000000 -2.500000
v 2.500000 0.000000 -2.500000
v 2.500000 -0.000000 2.500000
vt 0.000000 0.000000
vt 1.000000 0.000000
vt 1.000000 1.000000
vt 0.000000 1.000000
vn -1.0000 0.0000 0.0000
usemtl Material.002
s off
f 5/5/2 6/6/2 7/7/2 8/8/2
o Plane.002
v -2.500000 5.000000 -2.500000
v -2.500000 5.000000 2.500000
v -2.500000 -0.000000 2.500000
v -2.500000 0.000000 -2.500000
vt 0.000000 0.000000
vt 1.000000 0.000000
vt 1.000000 1.000000
vt 0.000000 1.000000
vn 1.0000 0.0000 0.0000
usemtl Material.004
s off
f 9/9/3 10/10/3 11/11/3 12/12/3
o Plane.003
v -2.500000 5.000000 2.500000
v 2.500000 5.000000 2.499999
v 2.500000 -0.000000 2.499999
v -2.500000 -0.000000 2.500000
vt 0.000000 0.000000
vt 1.000000 0.000000
vt 1.000000 1.000000
vt 0.000000 1.000000
vn -0.0000 0.0000 -1.0000
usemtl Material.003
s off
f 13/13/4 14/14/4 15/15/4 16/16/4
o Plane.004
v -2.500000 5.000000 -2.500001
v 2.500000 5.000000 -2.500002
v 0.500000 5.000000 -0.500001
v -0.500000 5.000000 -0.500001
v -0.500000 5.000001 0.499999
v 0.500000 5.000001 0.499999
v 2.500000 5.000002 2.499998
v -2.500000 5.000002 2.499999
vt 0.000000 0.000000
vt 1.000000 0.000000
vt 0.600000 0.400000
vt 0.400000 0.400000
vt 0.400000 0.600000
vt 0.600000 0.600000
vt 1.000000 1.000000
vt 0.000000 1.000000
vn 0.0000 -1.0000 0.0000
usemtl Material.003
s off
f 17/17/5 18/18/5 19/19/5 20/20/5
f 21/21/5 22/22/5 19/19/5 18/18/5 23/23/5 24/24/5 17/17/5 20/20/5
o Plane.005
v 0.500000 5.000001 -0.500000
v 0.500000 5.000001 0.500000
v -0.500000 5.000001 0.500000
v -0.500000 5.000001 -0.500000
vt 0.000000 0.000000
vt 1.000000 0.000000
vt 1.000000 1.000000
vt 0.000000 1.000000
vn 0.0000 -1.0000 0.0000
usemtl Light
s off
f 25/25/6 26/26/6 27/27/6 28/28/6
o Cube.002
v 2.043640 0.000000 -0.242978
v 2.043640 1.500000 -0.242978
v 0.691977 1.500000 0.407410
v 0.691977 -0.000000 0.407410
v 0.041588 1.500000 -0.944253
v 0.041588 0.000000 -0.944253
v 1.393252 1.500000 -1.594642
v 1.393252 0.000000 -1.594642
vt 0.375000 0.000000
vt 0.625000 0.000000
vt 0.625000 0.250000
vt 0.375000 0.250000
vt 0.625000 0.500000
vt 0.375000 0.500000
vt 0.625000 0.750000
vt 0.375000 0.750000
vt 0.625000 1.000000
vt 0.375000 1.000000
vt 0.125000 0.500000
vt 0.125000 0.750000
vt 0.875000 0.500000
vt 0.875000 0.750000
vn 0.4336 -0.0000 0.9011
vn -0.9011 -0.0000 0.4336
vn -0.4336 0.0000 -0.9011
vn 0.9011 0.0000 -0.4336
vn 0.0000 -1.0000 -0.0000
vn -0.0000 1.0000 -0.0000
usemtl Material.003
s off
f 29/29/7 30/30/7 31/31/7 32/32/7
f 32/32/8 31/31/8 33/33/8 34/34/8
f 34/34/9 33/33/9 35/35/9 36/36/9
f 36/36/10 35/35/10 30/37/10 29/38/10
f 32/39/11 34/34/11 36/36/11 29/40/11
f 33/33/12 31/41/12 30/42/12 35/35/12
o Cube.003
v -0.716007 0.000001 1.413693
v -0.716007 3.000001 1.413693
v -2.125242 3.000001 0.899829
v -2.125242 0.000001 0.899829
v -1.611378 3.000001 -0.509406
v -1.611378 0.000001 -0.509406
v -0.202143 3.000001 0.004458
v -0.202143 0.000001 0.004458
vt 0.375000 0.000000
vt 0.625000 0.000000
vt 0.625000 0.250000
vt 0.375000 0.250000
vt 0.625000 0.500000
vt 0.375000 0.500000
vt 0.625000 0.750000
vt 0.375000 0.750000
vt 0.625000 1.000000
vt 0.375000 1.000000
vt 0.125000 0.500000
vt 0.125000 0.750000
vt 0.875000 0.500000
vt 0.875000 0.750000
vn -0.3426 -0.0000 0.9395
vn -0.9395 0.0000 -0.3426
vn 0.3426 0.0000 -0.9395
vn 0.9395 -0.0000 0.3426
vn 0.0000 -1.0000 -0.0000
vn 0.0000 1.0000 0.0000
usemtl Material.003
s off
f 37/43/13 38/44/13 39/45/13 40/46/13
f 40/46/14 39/45/14 41/47/14 42/48/14
f 42/48/15 41/47/15 43/49/15 44/50/15
f 44/50/16 43/49/16 38/51/16 37/52/16
f 40/53/17 42/48/17 44/50/17 37/54/17
f 41/47/18 39/55/18 38/56/18 43/49/18
o Cylinder
v 0.000000 1.000000 -3.250000
v 0.000000 4.000000 -3.250000
v 0.292636 4.000000 -3.235589
v 0.292636 1.000000 -3.235589
v 0.574025 4.000000 -3.192910
v 0.574025 1.000000 -3.192910
v 0.833355 4.000000 -3.123602
v 0.833355 1.000000 -3.123602
v 1.060660 4.000000 -3.030330
v 1.060660 1.000000 -3.030330
v 1.247205 4.000000 -2.916678
v 1.247205 1.000000 -2.916678
v 1.385819 4.000000 -2.787013
v 1.385819 1.000000 -2.787013
v 1.471178 4.000000 -2.646318
v 1.471178 1.000000 -2.646318
v 1.500000 4.000000 -2.500000
v 1.500000 1.000000 -2.500000
v 1.471178 4.000000 -2.353682
v 1.471178 1.000000 -2.353682
v 1.385819 4.000000 -2.212987
v 1.385819 1.000000 -2.212987
v 1.247205 4.000000 -2.083322
v 1.247205 1.000000 -2.083322
v 1.060660 4.000000 -1.969670
v 1.060660 1.000000 -1.969670
v 0.833355 4.000000 -1.876398
v 0.833355 1.000000 -1.876398
v 0.574025 4.000000 -1.807090
v 0.574025 1.000000 -1.807090
v 0.292635 4.000000 -1.764411
v 0.292635 1.000000 -1.764411
v 0.000000 4.000000 -1.750000
v 0.000000 1.000000 -1.750000
v -0.292636 4.000000 -1.764411
v -0.292636 1.000000 -1.764411
v -0.574026 4.000000 -1.807091
v -0.574026 1.000000 -1.807091
v -0.833356 4.000000 -1.876398
v -0.833356 1.000000 -1.876398
v -1.060661 4.000000 -1.969670
v -1.060661 1.000000 -1.969670
v -1.247205 4.000000 -2.083323
v -1.247205 1.000000 -2.083323
v -1.385820 4.000000 -2.212988
v -1.385820 1.000000 -2.212988
v -1.471178 4.000000 -2.353683
v -1.471178 1.000000 -2.353683
v -1.500000 4.000000 -2.500001
v -1.500000 1.000000 -2.500001
v -1.471178 4.000000 -2.646318
v -1.471178 1.000000 -2.646318
v -1.385819 4.000000 -2.787013
v -1.385819 1.000000 -2.787013
v -1.247203 4.000000 -2.916678
v -1.247203 1.000000 -2.916678
v -1.060659 4.000000 -3.030331
v -1.060659 1.000000 -3.030331
v -0.833354 4.000000 -3.123603
v -0.833354 1.000000 -3.123603
v -0.574023 4.000000 -3.192910
v -0.574023 1.000000 -3.192910
v 0.292636 4.000000 -3.235589
v 0.000000 4.000000 -3.250000
v -0.292633 4.000000 -3.235589
v -0.574023 4.000000 -3.192910
v -0.833354 4.000000 -3.123603
v -1.060659 4.000000 -3.030331
v -1.247203 4.000000 -2.916678
v -1.385819 4.000000 -2.787013
v -1.471178 4.000000 -2.646318
v -1.500000 4.000000 -2.500001
v -1.471178 4.000000 -2.353683
v -1.385820 4.000000 -2.212988
v -1.247205 4.000000 -2.083323
v -1.060661 4.000000 -1.969670
v -0.833356 4.000000 -1.876398
v -0.574026 4.000000 -1.807091
v -0.292636 4.000000 -1.764411
v 0.000000 4.000000 -1.750000
v 0.292635 4.000000 -1.764411
v 0.574025 4.000000 -1.807090
v 0.833355 4.000000 -1.876398
v 1.060660 4.000000 -1.969670
v 1.247205 4.000000 -2.083322
v 1.385819 4.000000 -2.212987
v 1.471178 4.000000 -2.353682
v 1.500000 4.000000 -2.500000
v 1.471178 4.000000 -2.646318
v 1.385819 4.000000 -2.787013
v 1.247205 4.000000 -2.916678
v 1.060660 4.000000 -3.030330
v 0.833355 4.000000 -3.123602
v 0.574025 4.000000 -3.192910
v -0.292633 4.000000 -3.235589
v -0.292633 1.000000 -3.235589
v 0.000000 1.000000 -3.250000
v 0.292636 1.000000 -3.235589
v 0.574025 1.000000 -3.192910
v 0.833355 1.000000 -3.123602
v 1.060660 1.000000 -3.030330
v 1.247205 1.000000 -2.916678
v 1.385819 1.000000 -2.787013
v 1.471178 1.000000 -2.646318
v 1.500000 1.000000 -2.500000
v 1.471178 1.000000 -2.353682
v 1.385819 1.000000 -2.212987
v 1.247205 1.000000 -2.083322
v 1.060660 1.000000 -1.969670
v 0.833355 1.000000 -1.876398
v 0.574025 1.000000 -1.807090
v 0.292635 1.000000 -1.764411
v 0.000000 1.000000 -1.750000
v -0.292636 1.000000 -1.764411
v -0.574026 1.000000 -1.807091
v -0.833356 1.000000 -1.876398
v -1.060661 1.000000 -1.969670
v -1.247205 1.000000 -2.083323
v -1.385820 1.000000 -2.212988
v -1.471178 1.000000 -2.353683
v -1.500000 1.000000 -2.500001
v -1.471178 1.000000 -2.646318
v -1.385819 1.000000 -2.787013
v -1.247203 1.000000 -2.916678
v -1.060659 1.000000 -3.030331
v -0.833354 1.000000 -3.123603
v -0.574023 1.000000 -3.192910
v -0.292633 1.000000 -3.235589
vt 1.000000 0.500000
vt 1.000000 1.000000
vt 0.968750 1.000000
vt 0.968750 0.500000
vt 0.937500 1.000000
vt 0.937500 0.500000
vt 0.906250 1.000000
vt 0.906250 0.500000
vt 0.875000 1.000000
vt 0.875000 0.500000
vt 0.843750 1.000000
vt 0.843750 0.500000
vt 0.812500 1.000000
vt 0.812500 0.500000
vt 0.781250 1.000000
vt 0.781250 0.500000
vt 0.750000 1.000000
vt 0.750000 0.500000
vt 0.718750 1.000000
vt 0.718750 0.500000
vt 0.687500 1.000000
vt 0.687500 0.500000
vt 0.656250 1.000000
vt 0.656250 0.500000
vt 0.625000 1.000000
vt 0.625000 0.500000
vt 0.593750 1.000000
vt 0.593750 0.500000
vt 0.562500 1.000000
vt 0.562500 0.500000
vt 0.531250 1.000000
vt 0.531250 0.500000
vt 0.500000 1.000000
vt 0.500000 0.500000
vt 0.468750 1.000000
vt 0.468750 0.500000
vt 0.437500 1.000000
vt 0.437500 0.500000
vt 0.406250 1.000000
vt 0.406250 0.500000
vt 0.375000 1.000000
vt 0.375000 0.500000
vt 0.343750 1.000000
vt 0.343750 0.500000
vt 0.312500 1.000000
vt 0.312500 0.500000
vt 0.281250 1.000000
vt 0.281250 0.500000
vt 0.250000 1.000000
vt 0.250000 0.500000
vt 0.218750 1.000000
vt 0.218750 0.500000
vt 0.187500 1.000000
vt 0.187500 0.500000
vt 0.156250 1.000000
vt 0.156250 0.500000
vt 0.125000 1.000000
vt 0.125000 0.500000
vt 0.093750 1.000000
vt 0.093750 0.500000
vt 0.062500 1.000000
vt 0.062500 0.500000
vt 0.296822 0.485388
vt 0.250000 0.490000
vt 0.203179 0.485389
vt 0.158156 0.471731
vt 0.116663 0.449553
vt 0.080295 0.419706
vt 0.050447 0.383337
vt 0.028269 0.341844
vt 0.014612 0.296822
vt 0.010000 0.250000
vt 0.014611 0.203179
vt 0.028269 0.158156
vt 0.050447 0.116663
vt 0.080294 0.080294
vt 0.116663 0.050447
vt 0.158156 0.028269
vt 0.203178 0.014612
vt 0.250000 0.010000
vt 0.296822 0.014612
vt 0.341844 0.028269
vt 0.383337 0.050447
vt 0.419706 0.080294
vt 0.449553 0.116663
vt 0.471731 0.158156
vt 0.485388 0.203178
vt 0.490000 0.250000
vt 0.485388 0.296822
vt 0.471731 0.341844
vt 0.449553 0.383337
vt 0.419706 0.419706
vt 0.383337 0.449553
vt 0.341844 0.471731
vt 0.031250 1.000000
vt 0.031250 0.500000
vt 0.000000 1.000000
vt 0.000000 0.500000
vt 0.750000 0.490000
vt 0.796822 0.485388
vt 0.841844 0.471731
vt 0.883337 0.449553
vt 0.919706 0.419706
vt 0.949553 0.383337
vt 0.971731 0.341844
vt 0.985388 0.296822
vt 0.990000 0.250000
vt 0.985388 0.203178
vt 0.971731 0.158156
vt 0.949553 0.116663
vt 0.919706 0.080294
vt 0.883337 0.050447
vt 0.841844 0.028269
vt 0.796822 0.014612
vt 0.750000 0.010000
vt 0.703178 0.014612
vt 0.658156 0.028269
vt 0.616663 0.050447
vt 0.580294 0.080294
vt 0.550447 0.116663
vt 0.528269 0.158156
vt 0.514611 0.203179
vt 0.510000 0.250000
vt 0.514612 0.296822
vt 0.528269 0.341844
vt 0.550447 0.383337
vt 0.580295 0.419706
vt 0.616663 0.449553
vt 0.658156 0.471731
vt 0.703179 0.485389
vn -0.0000 0.0000 -1.0000
vn 0.0997 0.0000 -0.9950
vn 0.2044 0.0000 -0.9789
vn 0.3196 0.0000 -0.9476
vn 0.4514 0.0000 -0.8923
vn 0.6049 0.0000 -0.7963
vn 0.7763 0.0000 -0.6304
vn 0.9324 0.0000 -0.3615
vn 1.0000 -0.0000 0.0000
vn 0.9324 -0.0000 0.3615
vn 0.7763 -0.0000 0.6304
vn 0.6049 -0.0000 0.7963
vn 0.4514 -0.0000 0.8923
vn 0.3196 -0.0000 0.9476
vn 0.2044 -0.0000 0.9789
vn 0.0997 -0.0000 0.9950
vn 0.0000 -0.0000 1.0000
vn -0.0997 -0.0000 0.9950
vn -0.2044 -0.0000 0.9789
vn -0.3196 -0.0000 0.9476
vn -0.4514 -0.0000 0.8923
vn -0.6049 -0.0000 0.7963
vn -0.7763 -0.0000 0.6304
vn -0.9324 -0.0000 0.3615
vn -1.0000 0.0000 -0.0000
vn -0.9324 0.0000 -0.3615
vn -0.7763 0.0000 -0.6304
vn -0.6049 0.0000 -0.7963
vn -0.4514 0.0000 -0.8923
vn -0.3196 0.0000 -0.9476
vn -0.2044 0.0000 -0.9789
vn 0.0000 1.0000 -0.0000
vn -0.0997 0.0000 -0.9950
vn 0.0000 -1.0000 0.0000
usemtl Material.005
s 1
f 45/57/19 46/58/19 47/59/20 48/60/20
f 48/60/20 47/59/20 49/61/21 50/62/21
f 50/62/21 49/61/21 51/63/22 52/64/22
f 52/64/22 51/63/22 53/65/23 54/66/23
f 54/66/23 53/65/23 55/67/24 56/68/24
f 56/68/24 55/67/24 57/69/25 58/70/25
f 58/70/25 57/69/25 59/71/26 60/72/26
f 60/72/26 59/71/26 61/73/27 62/74/27
f 62/74/27 61/73/27 63/75/28 64/76/28
f 64/76/28 63/75/28 65/77/29 66/78/29
f 66/78/29 65/77/29 67/79/30 68/80/30
f 68/80/30 67/79/30 69/81/31 70/82/31
f 70/82/31 69/81/31 71/83/32 72/84/32
f 72/84/32 71/83/32 73/85/33 74/86/33
f 74/86/33 73/85/33 75/87/34 76/88/34
f 76/88/34 75/87/34 77/89/35 78/90/35
f 78/90/35 77/89/35 79/91/36 80/92/36
f 80/92/36 79/91/36 81/93/37 82/94/37
f 82/94/37 81/93/37 83/95/38 84/96/38
f 84/96/38 83/95/38 85/97/39 86/98/39
f 86/98/39 85/97/39 87/99/40 88/100/40
f 88/100/40 87/99/40 89/101/41 90/102/41
f 90/102/41 89/101/41 91/103/42 92/104/42
f 92/104/42 91/103/42 93/105/43 94/106/43
f 94/106/43 93/105/43 95/107/44 96/108/44
f 96/108/44 95/107/44 97/109/45 98/110/45
f 98/110/45 97/109/45 99/111/46 100/112/46
f 100/112/46 99/111/46 101/113/47 102/114/47
f 102/114/47 101/113/47 103/115/48 104/116/48
f 104/116/48 103/115/48 105/117/49 106/118/49
f 107/119/50 108/120/50 109/121/50 110/122/50 111/123/50 112/124/50 113/125/50 114/126/50 115/127/50 116/128/50 117/129/50 118/130/50 119/131/50 120/132/50 121/133/50 122/134/50 123/135/50 124/136/50 125/137/50 126/138/50 127/139/50 128/140/50 129/141/50 130/142/50 131/143/50 132/144/50 133/145/50 134/146/50 135/147/50 136/148/50 137/149/50 138/150/50
f 106/118/49 105/117/49 139/151/51 140/152/51
f 140/152/51 139/151/51 46/153/19 45/154/19
f 141/155/52 142/156/52 143/157/52 144/158/52 145/159/52 146/160/52 147/161/52 148/162/52 149/163/52 150/164/52 151/165/52 152/166/52 153/167/52 154/168/52 155/169/52 156/170/52 157/171/52 158/172/52 159/173/52 160/174/52 161/175/52 162/176/52 163/177/52 164/178/52 165/179/52 166/180/52 167/181/52 168/182/52 169/183/52 170/184/52 171/185/52 172/186/52
